<mxfile host="app.diagrams.net" modified="2023-01-03T01:57:11.618Z" agent="5.0 (Windows NT 10.0; Win64; x64) AppleWebKit/537.36 (KHTML, like Gecko) Chrome/108.0.0.0 Safari/537.36 Edg/108.0.1462.54" version="20.8.0" etag="r2E3fIuE1PoI4izzagw8" type="github">
  <diagram id="S_Y_YnElNU_rRsE4kPmI" name="Página-1">
    <mxGraphModel dx="880" dy="522" grid="1" gridSize="10" guides="1" tooltips="1" connect="1" arrows="1" fold="1" page="1" pageScale="1" pageWidth="827" pageHeight="1169" math="0" shadow="0">
      <root>
        <mxCell id="0" />
        <mxCell id="1" parent="0" />
        <mxCell id="OAp7uTvMOBkOuxQ-HmVQ-3" value="" style="edgeStyle=orthogonalEdgeStyle;rounded=0;orthogonalLoop=1;jettySize=auto;html=1;" edge="1" parent="1" source="OAp7uTvMOBkOuxQ-HmVQ-1" target="OAp7uTvMOBkOuxQ-HmVQ-2">
          <mxGeometry relative="1" as="geometry" />
        </mxCell>
        <mxCell id="OAp7uTvMOBkOuxQ-HmVQ-1" value="Inicio" style="rounded=1;whiteSpace=wrap;html=1;" vertex="1" parent="1">
          <mxGeometry x="300" y="20" width="120" height="30" as="geometry" />
        </mxCell>
        <mxCell id="OAp7uTvMOBkOuxQ-HmVQ-6" value="" style="edgeStyle=orthogonalEdgeStyle;rounded=0;orthogonalLoop=1;jettySize=auto;html=1;" edge="1" parent="1" source="OAp7uTvMOBkOuxQ-HmVQ-2" target="OAp7uTvMOBkOuxQ-HmVQ-5">
          <mxGeometry relative="1" as="geometry" />
        </mxCell>
        <mxCell id="OAp7uTvMOBkOuxQ-HmVQ-8" value="" style="edgeStyle=orthogonalEdgeStyle;rounded=0;orthogonalLoop=1;jettySize=auto;html=1;" edge="1" parent="1" source="OAp7uTvMOBkOuxQ-HmVQ-2" target="OAp7uTvMOBkOuxQ-HmVQ-7">
          <mxGeometry relative="1" as="geometry" />
        </mxCell>
        <mxCell id="OAp7uTvMOBkOuxQ-HmVQ-2" value="Tem &lt;br&gt;gente com &lt;br&gt;fome?" style="rhombus;whiteSpace=wrap;html=1;rounded=1;" vertex="1" parent="1">
          <mxGeometry x="320" y="105" width="80" height="80" as="geometry" />
        </mxCell>
        <mxCell id="OAp7uTvMOBkOuxQ-HmVQ-5" value="NÃO" style="shape=parallelogram;perimeter=parallelogramPerimeter;whiteSpace=wrap;html=1;fixedSize=1;rounded=1;" vertex="1" parent="1">
          <mxGeometry x="460" y="115" width="60" height="60" as="geometry" />
        </mxCell>
        <mxCell id="OAp7uTvMOBkOuxQ-HmVQ-26" value="" style="edgeStyle=orthogonalEdgeStyle;rounded=0;orthogonalLoop=1;jettySize=auto;html=1;entryX=0.5;entryY=0;entryDx=0;entryDy=0;" edge="1" parent="1" source="OAp7uTvMOBkOuxQ-HmVQ-7" target="OAp7uTvMOBkOuxQ-HmVQ-25">
          <mxGeometry relative="1" as="geometry">
            <Array as="points">
              <mxPoint x="220" y="200" />
              <mxPoint x="360" y="200" />
            </Array>
          </mxGeometry>
        </mxCell>
        <mxCell id="OAp7uTvMOBkOuxQ-HmVQ-7" value="SIM" style="shape=parallelogram;perimeter=parallelogramPerimeter;whiteSpace=wrap;html=1;fixedSize=1;rounded=1;" vertex="1" parent="1">
          <mxGeometry x="200" y="115" width="60" height="60" as="geometry" />
        </mxCell>
        <mxCell id="OAp7uTvMOBkOuxQ-HmVQ-11" value="" style="endArrow=classic;html=1;rounded=0;" edge="1" parent="1" target="OAp7uTvMOBkOuxQ-HmVQ-12">
          <mxGeometry width="50" height="50" relative="1" as="geometry">
            <mxPoint x="490" y="115" as="sourcePoint" />
            <mxPoint x="360" y="80" as="targetPoint" />
            <Array as="points">
              <mxPoint x="490" y="80" />
            </Array>
          </mxGeometry>
        </mxCell>
        <mxCell id="OAp7uTvMOBkOuxQ-HmVQ-13" style="edgeStyle=orthogonalEdgeStyle;rounded=0;orthogonalLoop=1;jettySize=auto;html=1;" edge="1" parent="1" source="OAp7uTvMOBkOuxQ-HmVQ-12">
          <mxGeometry relative="1" as="geometry">
            <mxPoint x="360" y="70" as="targetPoint" />
          </mxGeometry>
        </mxCell>
        <mxCell id="OAp7uTvMOBkOuxQ-HmVQ-12" value="Espera 20min" style="shape=parallelogram;perimeter=parallelogramPerimeter;whiteSpace=wrap;html=1;fixedSize=1;" vertex="1" parent="1">
          <mxGeometry x="430" y="60" width="120" height="20" as="geometry" />
        </mxCell>
        <mxCell id="OAp7uTvMOBkOuxQ-HmVQ-34" style="edgeStyle=orthogonalEdgeStyle;rounded=0;orthogonalLoop=1;jettySize=auto;html=1;entryX=0;entryY=0.5;entryDx=0;entryDy=0;" edge="1" parent="1" source="OAp7uTvMOBkOuxQ-HmVQ-20" target="OAp7uTvMOBkOuxQ-HmVQ-30">
          <mxGeometry x="0.2121" y="-60" relative="1" as="geometry">
            <Array as="points">
              <mxPoint x="220" y="380" />
            </Array>
            <mxPoint as="offset" />
          </mxGeometry>
        </mxCell>
        <mxCell id="OAp7uTvMOBkOuxQ-HmVQ-20" value="p=1" style="shape=parallelogram;perimeter=parallelogramPerimeter;whiteSpace=wrap;html=1;fixedSize=1;rounded=1;" vertex="1" parent="1">
          <mxGeometry x="200" y="250" width="60" height="60" as="geometry" />
        </mxCell>
        <mxCell id="OAp7uTvMOBkOuxQ-HmVQ-36" style="edgeStyle=orthogonalEdgeStyle;rounded=0;orthogonalLoop=1;jettySize=auto;html=1;entryX=1;entryY=0.5;entryDx=0;entryDy=0;" edge="1" parent="1" source="OAp7uTvMOBkOuxQ-HmVQ-22" target="OAp7uTvMOBkOuxQ-HmVQ-30">
          <mxGeometry relative="1" as="geometry">
            <mxPoint x="490" y="380" as="targetPoint" />
            <Array as="points">
              <mxPoint x="480" y="380" />
            </Array>
          </mxGeometry>
        </mxCell>
        <mxCell id="OAp7uTvMOBkOuxQ-HmVQ-22" value="p=2" style="shape=parallelogram;perimeter=parallelogramPerimeter;whiteSpace=wrap;html=1;fixedSize=1;rounded=1;" vertex="1" parent="1">
          <mxGeometry x="460" y="250" width="60" height="60" as="geometry" />
        </mxCell>
        <mxCell id="OAp7uTvMOBkOuxQ-HmVQ-27" value="" style="edgeStyle=orthogonalEdgeStyle;rounded=0;orthogonalLoop=1;jettySize=auto;html=1;" edge="1" parent="1" source="OAp7uTvMOBkOuxQ-HmVQ-25" target="OAp7uTvMOBkOuxQ-HmVQ-20">
          <mxGeometry relative="1" as="geometry" />
        </mxCell>
        <mxCell id="OAp7uTvMOBkOuxQ-HmVQ-29" value="" style="edgeStyle=orthogonalEdgeStyle;rounded=0;orthogonalLoop=1;jettySize=auto;html=1;" edge="1" parent="1" source="OAp7uTvMOBkOuxQ-HmVQ-25" target="OAp7uTvMOBkOuxQ-HmVQ-22">
          <mxGeometry relative="1" as="geometry" />
        </mxCell>
        <mxCell id="OAp7uTvMOBkOuxQ-HmVQ-25" value="Quantas&lt;br style=&quot;border-color: var(--border-color);&quot;&gt;pessoas?" style="rhombus;whiteSpace=wrap;html=1;rounded=1;" vertex="1" parent="1">
          <mxGeometry x="320" y="240" width="80" height="80" as="geometry" />
        </mxCell>
        <mxCell id="OAp7uTvMOBkOuxQ-HmVQ-43" value="" style="edgeStyle=orthogonalEdgeStyle;rounded=0;orthogonalLoop=1;jettySize=auto;html=1;" edge="1" parent="1" source="OAp7uTvMOBkOuxQ-HmVQ-30" target="OAp7uTvMOBkOuxQ-HmVQ-42">
          <mxGeometry relative="1" as="geometry" />
        </mxCell>
        <mxCell id="OAp7uTvMOBkOuxQ-HmVQ-30" value="Pegar (p) miojo(s) no armáro" style="rounded=1;whiteSpace=wrap;html=1;" vertex="1" parent="1">
          <mxGeometry x="300" y="350" width="120" height="60" as="geometry" />
        </mxCell>
        <mxCell id="OAp7uTvMOBkOuxQ-HmVQ-47" value="" style="edgeStyle=orthogonalEdgeStyle;rounded=0;orthogonalLoop=1;jettySize=auto;html=1;" edge="1" parent="1" source="OAp7uTvMOBkOuxQ-HmVQ-42" target="OAp7uTvMOBkOuxQ-HmVQ-44">
          <mxGeometry relative="1" as="geometry" />
        </mxCell>
        <mxCell id="OAp7uTvMOBkOuxQ-HmVQ-48" value="" style="edgeStyle=orthogonalEdgeStyle;rounded=0;orthogonalLoop=1;jettySize=auto;html=1;" edge="1" parent="1" source="OAp7uTvMOBkOuxQ-HmVQ-42" target="OAp7uTvMOBkOuxQ-HmVQ-46">
          <mxGeometry relative="1" as="geometry" />
        </mxCell>
        <mxCell id="OAp7uTvMOBkOuxQ-HmVQ-42" value="p=1 ou 2?" style="rhombus;whiteSpace=wrap;html=1;rounded=1;" vertex="1" parent="1">
          <mxGeometry x="320" y="430" width="80" height="80" as="geometry" />
        </mxCell>
        <mxCell id="OAp7uTvMOBkOuxQ-HmVQ-50" value="" style="edgeStyle=orthogonalEdgeStyle;rounded=0;orthogonalLoop=1;jettySize=auto;html=1;" edge="1" parent="1" source="OAp7uTvMOBkOuxQ-HmVQ-44" target="OAp7uTvMOBkOuxQ-HmVQ-49">
          <mxGeometry relative="1" as="geometry" />
        </mxCell>
        <mxCell id="OAp7uTvMOBkOuxQ-HmVQ-44" value="p=1" style="shape=parallelogram;perimeter=parallelogramPerimeter;whiteSpace=wrap;html=1;fixedSize=1;rounded=1;" vertex="1" parent="1">
          <mxGeometry x="200" y="440" width="60" height="60" as="geometry" />
        </mxCell>
        <mxCell id="OAp7uTvMOBkOuxQ-HmVQ-52" value="" style="edgeStyle=orthogonalEdgeStyle;rounded=0;orthogonalLoop=1;jettySize=auto;html=1;" edge="1" parent="1" source="OAp7uTvMOBkOuxQ-HmVQ-46" target="OAp7uTvMOBkOuxQ-HmVQ-51">
          <mxGeometry relative="1" as="geometry" />
        </mxCell>
        <mxCell id="OAp7uTvMOBkOuxQ-HmVQ-46" value="p=2" style="shape=parallelogram;perimeter=parallelogramPerimeter;whiteSpace=wrap;html=1;fixedSize=1;rounded=1;" vertex="1" parent="1">
          <mxGeometry x="460" y="440" width="60" height="60" as="geometry" />
        </mxCell>
        <mxCell id="OAp7uTvMOBkOuxQ-HmVQ-54" value="" style="edgeStyle=orthogonalEdgeStyle;rounded=0;orthogonalLoop=1;jettySize=auto;html=1;" edge="1" parent="1" source="OAp7uTvMOBkOuxQ-HmVQ-49" target="OAp7uTvMOBkOuxQ-HmVQ-53">
          <mxGeometry relative="1" as="geometry">
            <Array as="points">
              <mxPoint x="360" y="570" />
            </Array>
          </mxGeometry>
        </mxCell>
        <mxCell id="OAp7uTvMOBkOuxQ-HmVQ-49" value="-Colocar 200ml de água para ferver" style="rounded=1;whiteSpace=wrap;html=1;" vertex="1" parent="1">
          <mxGeometry x="170" y="540" width="120" height="60" as="geometry" />
        </mxCell>
        <mxCell id="OAp7uTvMOBkOuxQ-HmVQ-55" style="edgeStyle=orthogonalEdgeStyle;rounded=0;orthogonalLoop=1;jettySize=auto;html=1;entryX=0.5;entryY=0;entryDx=0;entryDy=0;" edge="1" parent="1" source="OAp7uTvMOBkOuxQ-HmVQ-51" target="OAp7uTvMOBkOuxQ-HmVQ-53">
          <mxGeometry relative="1" as="geometry">
            <Array as="points">
              <mxPoint x="360" y="570" />
            </Array>
          </mxGeometry>
        </mxCell>
        <mxCell id="OAp7uTvMOBkOuxQ-HmVQ-51" value="-Colocar 400ml de água para ferver" style="rounded=1;whiteSpace=wrap;html=1;" vertex="1" parent="1">
          <mxGeometry x="430" y="540" width="120" height="60" as="geometry" />
        </mxCell>
        <mxCell id="OAp7uTvMOBkOuxQ-HmVQ-57" value="" style="edgeStyle=orthogonalEdgeStyle;rounded=0;orthogonalLoop=1;jettySize=auto;html=1;" edge="1" parent="1" source="OAp7uTvMOBkOuxQ-HmVQ-53" target="OAp7uTvMOBkOuxQ-HmVQ-56">
          <mxGeometry relative="1" as="geometry" />
        </mxCell>
        <mxCell id="OAp7uTvMOBkOuxQ-HmVQ-53" value="-Abrir quantos pacotes de miojo tiver pegado no armário. (embalagem e tempero);&lt;br&gt;&lt;br&gt;--Reservar;" style="rounded=1;whiteSpace=wrap;html=1;" vertex="1" parent="1">
          <mxGeometry x="265" y="620" width="190" height="110" as="geometry" />
        </mxCell>
        <mxCell id="OAp7uTvMOBkOuxQ-HmVQ-60" value="" style="edgeStyle=orthogonalEdgeStyle;rounded=0;orthogonalLoop=1;jettySize=auto;html=1;" edge="1" parent="1" source="OAp7uTvMOBkOuxQ-HmVQ-56" target="OAp7uTvMOBkOuxQ-HmVQ-58">
          <mxGeometry relative="1" as="geometry" />
        </mxCell>
        <mxCell id="OAp7uTvMOBkOuxQ-HmVQ-61" value="" style="edgeStyle=orthogonalEdgeStyle;rounded=0;orthogonalLoop=1;jettySize=auto;html=1;" edge="1" parent="1" source="OAp7uTvMOBkOuxQ-HmVQ-56" target="OAp7uTvMOBkOuxQ-HmVQ-59">
          <mxGeometry relative="1" as="geometry" />
        </mxCell>
        <mxCell id="OAp7uTvMOBkOuxQ-HmVQ-56" value="A água ferveu?" style="rhombus;whiteSpace=wrap;html=1;rounded=1;" vertex="1" parent="1">
          <mxGeometry x="320" y="780" width="80" height="80" as="geometry" />
        </mxCell>
        <mxCell id="OAp7uTvMOBkOuxQ-HmVQ-66" value="" style="edgeStyle=orthogonalEdgeStyle;rounded=0;orthogonalLoop=1;jettySize=auto;html=1;" edge="1" parent="1" source="OAp7uTvMOBkOuxQ-HmVQ-58" target="OAp7uTvMOBkOuxQ-HmVQ-65">
          <mxGeometry relative="1" as="geometry">
            <Array as="points">
              <mxPoint x="230" y="880" />
              <mxPoint x="360" y="880" />
            </Array>
          </mxGeometry>
        </mxCell>
        <mxCell id="OAp7uTvMOBkOuxQ-HmVQ-58" value="SIM" style="shape=parallelogram;perimeter=parallelogramPerimeter;whiteSpace=wrap;html=1;fixedSize=1;rounded=1;" vertex="1" parent="1">
          <mxGeometry x="200" y="790" width="60" height="60" as="geometry" />
        </mxCell>
        <mxCell id="OAp7uTvMOBkOuxQ-HmVQ-63" value="" style="edgeStyle=orthogonalEdgeStyle;rounded=0;orthogonalLoop=1;jettySize=auto;html=1;" edge="1" parent="1" source="OAp7uTvMOBkOuxQ-HmVQ-59" target="OAp7uTvMOBkOuxQ-HmVQ-62">
          <mxGeometry relative="1" as="geometry" />
        </mxCell>
        <mxCell id="OAp7uTvMOBkOuxQ-HmVQ-59" value="NÃO" style="shape=parallelogram;perimeter=parallelogramPerimeter;whiteSpace=wrap;html=1;fixedSize=1;rounded=1;" vertex="1" parent="1">
          <mxGeometry x="460" y="790" width="60" height="60" as="geometry" />
        </mxCell>
        <mxCell id="OAp7uTvMOBkOuxQ-HmVQ-64" style="edgeStyle=orthogonalEdgeStyle;rounded=0;orthogonalLoop=1;jettySize=auto;html=1;" edge="1" parent="1" source="OAp7uTvMOBkOuxQ-HmVQ-62">
          <mxGeometry relative="1" as="geometry">
            <mxPoint x="360" y="750" as="targetPoint" />
            <Array as="points">
              <mxPoint x="625" y="750" />
              <mxPoint x="360" y="750" />
            </Array>
          </mxGeometry>
        </mxCell>
        <mxCell id="OAp7uTvMOBkOuxQ-HmVQ-62" value="Espera 1 min" style="whiteSpace=wrap;html=1;rounded=1;" vertex="1" parent="1">
          <mxGeometry x="570" y="810" width="110" height="20" as="geometry" />
        </mxCell>
        <mxCell id="OAp7uTvMOBkOuxQ-HmVQ-81" value="" style="edgeStyle=orthogonalEdgeStyle;rounded=0;orthogonalLoop=1;jettySize=auto;html=1;" edge="1" parent="1" source="OAp7uTvMOBkOuxQ-HmVQ-65" target="OAp7uTvMOBkOuxQ-HmVQ-80">
          <mxGeometry relative="1" as="geometry" />
        </mxCell>
        <mxCell id="OAp7uTvMOBkOuxQ-HmVQ-65" value="-Colocar o macarrão na água;&lt;br&gt;-Esperar cozinhar;&lt;br&gt;-Adicionar tempero pronto;&lt;br&gt;-Misturar;" style="whiteSpace=wrap;html=1;rounded=1;" vertex="1" parent="1">
          <mxGeometry x="285" y="900" width="150" height="80" as="geometry" />
        </mxCell>
        <mxCell id="OAp7uTvMOBkOuxQ-HmVQ-85" value="" style="edgeStyle=orthogonalEdgeStyle;rounded=0;orthogonalLoop=1;jettySize=auto;html=1;" edge="1" parent="1" source="OAp7uTvMOBkOuxQ-HmVQ-80" target="OAp7uTvMOBkOuxQ-HmVQ-84">
          <mxGeometry relative="1" as="geometry" />
        </mxCell>
        <mxCell id="OAp7uTvMOBkOuxQ-HmVQ-80" value="-Servir em (p) pratos(s);&lt;br&gt;-Comer;" style="whiteSpace=wrap;html=1;rounded=1;" vertex="1" parent="1">
          <mxGeometry x="285" y="1010" width="150" height="50" as="geometry" />
        </mxCell>
        <mxCell id="OAp7uTvMOBkOuxQ-HmVQ-84" value="FIM" style="whiteSpace=wrap;html=1;rounded=1;" vertex="1" parent="1">
          <mxGeometry x="300" y="1120" width="120" height="35" as="geometry" />
        </mxCell>
      </root>
    </mxGraphModel>
  </diagram>
</mxfile>
